<svg xmlns="http://www.w3.org/2000/svg" width="100%" viewBox="0 0 940 120">
  <g fill="#1C3FFF" fill-rule="evenodd">
    <path
      d="M69.3 51.4A40 40 0 1 1 0 91.4Zm-43.7-27A40 40 0 0 1 80.3 39L11 79a40 40 0 0 1 14.6-54.6ZM130 85l-40 25V10l40 25zm75-25 25 40H130l25-40h50Zm-25-45 25 40h-50l25-40Zm105 65a40 40 0 1 0 0-80v80Zm-5-60v80h-40V20Z" />
    <path
      d="M365 40a40 40 0 1 0 0 80V40Zm5 60V20h40v80Zm120-40 25 40H415l25-40h50Zm-25-45 25 40h-50l25-40Zm120.6 31a40 40 0 1 1-69.2 40ZM542 19a40 40 0 0 1 54.6 14.6l-69.2 40A40 40 0 0 1 542 19Zm103 66-40 25V10l40 25v50Zm4 0 40 25V10l-40 25v50Zm130-30a40 40 0 1 0-80 0h80Zm0 5a40 40 0 1 1-80 0h80Zm47 25-40 25V10l40 25v50Zm45-50-40 25V10l40 25Zm49.6.1a40 40 0 0 1-42.4 67.9ZM925 20l-25 40-25-40h50Z" />
  </g>
</svg>