<svg xmlns="http://www.w3.org/2000/svg" viewBox="0 0 240 240" height="120" width="120">
  <circle cx="120" cy="120" r="120" fill="#D8127E"/>
  <path fill="#FFFFFE" d="m192.7 91.1-.3-1.4c-.2-.7-.1-1-.4-1.8l-1.4-1.8-.5-.8c-.3-.8-.3-1.8-.8-2.2-.6-.4-1-.2-1.8-.5-.2 0-.4-.8-.7-1-.4-.2-1.3 0-1.6.1l-.6.6c-1.4.8-1.2 1.4-2 2.8l-.7.8c-.2.4 0 1.8-.4 3-.1.2-.6 1-.8 1.7-.3.8-.6 3.9-1.4 4.6-.9.6-2.9.5-4 0-.4-.1-.5-.7-.4-1l-.3-1.8v-1.2c.3-.1.6-.7.6-1a50.6 50.6 0 0 0-1.4-11.4c-.1-.7.4-4.5.4-4.5V73l-.3-1 .3-.8c.1-.2.1-.7.3-.9.6-.5.4-1.4 1-1.7.8-.4 2.7-1 4-.5l1.4.3 2.6-.1c.2 0 1.7.2 2 0h1.3c.6-.3 1.1-.3 1.7-.5 0 0 .8-.3 1-.7.3-.3.4-2 .3-3.1 0-.2-.6-1.3-.6-1.7-.1-.4.2-1.6 0-2.5l-.3-1.2c-.2-.3-.2-.7-.6-1a18 18 0 0 0-5 0c-2.4.4-5.5 0-5.9.2-.4.2-.4.4-.8.4-.4.1-1 0-1.2-.1-.2-.2 0-.3-.2-.7 0 0-.8-1.4-.7-1.8 0-.4.5-1 .7-1.4.2-.4-.2-1.9 0-2.8.1-.3.7-.5.8-.9.2-.4 0-2-.2-2.3l-.6-1c-.4-.7-.2-1.8-1-2-1.8-.7-3.4 0-5.2-.4l-1.4-.6c-.6 0-3.3-.4-4.3 0-.8.1-2 1.3-2 1.3-1.4 3 1.2 7.3 0 10.8-.3.9-1.1.7-1.6.9l-1.6.5-.8.5c-.5.2-.9.3-1.3.6-.3.2-.7 1-.9 1.3-.8.7-1.2.6-1.5 1.3-.4.7-.4 1.2-.4 1.2.3 1 .5 3 1.8 3.9 1.1.8 4.3.5 4.8.9l.8 1 .2 1.3c.3 1.7-.3 2.6-.4 3.3 0 .6 0 2.3-.4 5.2l-.4 1.8-.2 1.2c-.3.7 0 .7 0 1.4-.2.7.1 1.5.1 1.5.3.5.1.9.3 1.4l.6 4-.2 1c-.1.6 0 1 .2 1.3 0 .2.4.7.4 1 .4 1 .4 2.3.4 3.4 0 .4.2.5.2.7 0 .4-.1.5-.2.7a6 6 0 0 0 .2 2.1l.5 1c.2.7 0 2 .4 2.5.3.4 1.1.6 1.3.6l1.5 1.8c.5.3.7 0 1.2.1 0 0 .5.9.9 1l5.6-.4c1.3 0 3.2.8 4.9.4l1.6-.4c.5 0 2.2.5 2.9.1l1.1-.6c.7-.2 1.1 0 1.7-.2l.7-1c.2-.6 2.9-2 3.2-2.8l.5-.7c.3-.2 1-.3 1.2-.6.3-.3.4-.3.5-1.2 0 0 .8-.5 1-.9l.4-1.6.3-2.3c.4-.6.1-3 0-3.5m-39.4-22.8c-.3-.8 0-.9-.4-1.5l-.6-.6c-.2-.6-.3-.8-.7-1-.3-.2-.6-.1-1-.3-.3-.3-.4-.9-.7-1.2l-.7-.6c-.3-.3-.6-.8-1-1-.4-.3-1.5-.4-2.6-.6l-1.4-.7-1.4-.5-1.6-1.1c-.5-.3-1.5-.2-2-.4l-.9-.7c-.3 0-.5-.2-1.2-.1a6 6 0 0 0-1.8.3c-1.7.7-3.3.2-4.2.5l-1.4.6-1.4.4-.7.5c-1 .3-.4 0-1.2.2-.5 0-1.4.8-1.7 1-.4.1-.9.1-1.3.3-.4.1-.5.6-.8.7l-1.7.8c-.5.3-1.5 1.5-2.1 1.9-.3.2-1.2.8-1.4 1.2-.1.4-.8 1-1 1.2-.5.5-1.5 1.4-1.8 2-.6 1.7-.5 3.3-.7 4.4l-.6 2.4c-.2.6 0 2.7-.5 4.5 0 0-.5 1-.6 1.6-.1.6.2 1.6 0 2.8v2l.3 1.5.1 1.5.3.9c0 .3.4 1.8.6 2.1l.6.6c.2.2.6.3.9 1 0 .3.6 1 .7 1.5l.1.4c-.5 0-.7-.3-1.3-.1-.8 0-1-.3-1.4-.2h-1.5c0 .2-.7.4-.8.3-.4-.5-1 .1-1.1-.3 0-.4-.2-1.1 0-1.6.3-.8.2-1.2.2-1.6l-.2-1v-4.7c-.1-.3-.3 0-.4-.6 0-.3.1-.7-.1-1-.3-.4-.1-.7-.1-.9l.2-1c.3-.9-.2-2 0-2.7l.4-.4c.5-2.1 0-6.4 0-7 0-.6-.8-1.9-.8-2-.5-2-.2-3-.5-3.8-.2-.8-.6-1-.7-1.1v-1c0-.4-2-3.3-2.4-3.5-.6-.2-1.3-.5-1.5-.2-.2.2-.9-.2-1-.3l-1.5-.6c-.4-.2-2-2.2-2.6-2.3l-1.5-.5c-.4-.2-.7-.2-1.2-.2-.6 0-1.1.3-1.4.3-1 .3-3.2.2-3.4.4l-1 .5c-.8.2-1.3.1-2 .5l-.8.5c0 .2-1 .5-1.2 1 0 .4-.5.7-.7.6h-1.3c-1 .5-3.3 4.1-3.6 4.1-.3 0-.7.2-1 0-.2-.1-.2-.5-.3-.7l-.7-.3v-1.7c0-.1-.9-.8-.9-1 0-.2-.1-.5-.4-.6-3.1-1.1-6.8.7-10 0-.6-.1-.6-.3-1-.5-1-.4-3.3 0-4 .3-.6.3-.8 1-1.2 1.6l-.4 1c0 1.4.3 5.4.7 6.6.3.6 5.7 0 6 0 .3 0 .3.8.3 1 0 .1.6.4.7.7.2.6.4 1.8.2 2.5 0 .1-.8 1-.9 1.4-.3.8-.3 12 0 12.9l.6 1.2c.3 1.6.5 4.2.4 4.7-.2 1.1-5.5.7-6.3 1-.6.3-1.2 1.8-1.3 2.3l-.5 2.9c0 .3-.4 1-.5 1.4 0 .4 0 2 .2 2.2.4.3 2 .6 2.1.8l.4.3c1.3.4 5.6.5 7 0 .4-.2.1-.3.7-.4.2 0 .3.4.5.4.6-.2 1.5.3 2 0l.8-.3c.2 0 .5.3.5.3.5.2 1.3-.1 1.7 0 .4.2.2.5.6.6l2.6.4c.5 0 .8-.4 1.6-.4 2.2-.2 2.3 0 2.7.1.8.2 3.2-.5 3.7-1 .3-.2 0-.5 0-.7 0-.2.8 0 1-.3.2-.3-.3-1 0-1.3.2-.2 0-.8 0-1 .2-.7-.5-1.1-.7-1.9-.1-.7 0-4.7-.3-4.7s-.3-.6-.6-.7c-.4 0-2.6-.4-3.7-.3-.2 0 .2-1.5 0-1.7-.2-.2-.6-.2-.7-.5-.2-.7.6-.5.7-.8 1.4-2.7-.9-9.9 0-13.5.1-.4.7-.8.8-1.3.2-.5.1-2.7.3-3 .2-.2.8-.6.9-1 0-.3-.2-.6 0-.9.2-.2.5 0 .7-.1.2 0 1-.7 1.3-.8l2 .1c.6 0 .5.4 1 .5.4 0 1.5-.3 2-.2.3.1 1 .9 1.2 1 .8.3 1.1.2 1.4.4.3.1.9.7 1 1 .2.6 0 1 .3 1.6.1.2 1 .5 1 1s-.1 5.3-.3 6L96 84c-.3.7.2.8 0 1.6-.2.2 0 1.8 0 2.3-.1.4-.5 2.2-.2 3l.6 1.4c0 1.4-.2 3-2.8 3.6-1 .2-1-.4-1.8-.5-.7 0-1.1.1-1.3.3-.9 1.3-1 1.5-.6 3.2 0 0 0 1.3.2 2l.7 1.8c.2.6-.4 1-.1 1.6.3.6.1 1 .4 1.5.2.4 1 .8 1.2.9.3 0 3.2 0 3.9-.4.6-.4 2-.2 2.5-.3.5-.1 1.9.3 2.2.3.5.1 1.8-.3 2.7-.1 1.9.3 12 .7 12.8.2l.6-.4c0-.4.1-.8.4-1 .3-.1.5-.5.5-.8 0-.3-.2-1.5 0-2.4l-.2-2 .4.4.5.6c.1.2.4.5.7.6.2 0 .2.3.8.4l.8.5c1 .4.4.7 1.5 1 .3 0 1.5 1 1.8 1.3.4.1 1.4.9 1.7 1l1.8.4c.4 0 1.2 0 2 .2.3.2.8.4 1.5.5 1.4.2 2.6-.2 3.2-.2 3-.3 5.1.2 6.2 0l2.7-1 1.9-.5c.4-.2.2-.4.7-.6l1-.3 3-.7c1-.2 1.7-1.5 2.2-1.7.6-.3 1.3-1 1.5-1.5.3-.5.5-1.4 1-2.7l.7-1.4c.5-1.2 1.2-2.7 1.1-3 0-.4-1.7-2.2-2-2.3-.2-.2-1.4-.3-2-.6-1.2-.5-1-1.5-3.6-.8-.8.3-.7.9-1.2 1l-2.4.6c-.6.2-1.7 1.5-2.3 1.8a5 5 0 0 0-1.6.5c-1.5.9-1.5 1.9-2.2 2.3-.7.5-1.6.4-2.5.6-.6.1-.8.5-2.2.3a9 9 0 0 1-1.2-.2l-1.2-.5-.3-.4c-.3-.7-2.1-1-2.4-1.7 0-.3-.5-1-.7-1.1-.5-.5 0-.5-.7-.8 0-.1-.5-.2-.5-.4-.1-.2-.9-.8-1-1.4v-1.2c.2-2.7.6-3.7 3.6-3.3.3 0 .5.2 1.5 0 .8-.2 1.6-.8 2.5-1a18 18 0 0 1 7 .1l1.6.9c2.6.6 8.3.4 8.6.3l1-.6c.8-.2.6-.2 1 0 .3.1 2.7-1.4 3-1.7.5-1.1.3-7.6.2-8l-.3-1.5c-.2-.4-.5-.9-.4-1.1 0-.6 0-.2-.3-1l-.4-1.5-.8-1.3c0-.3-.8-.8-.9-1m-12 7.6c-.9.3-.5 0-1.3.3l-1 .3c-.7.3-7.7.5-8.2.4l-.6-.4-1.2-.6c-.4-.2-1-.1-1.2-.4-.1-.6-.2-.4-.3-.6 0-.3 0-1.3.3-1.7.3-.5.7-.6 1.2-.9.6-.3.9-1.4 1.2-1.7.2-.4 1-1.3 1.3-1.5l1.9-1.3s-.6.4 0 0c.6-.3 2.5-.7 3.5 0l1.5 1 .7.4c.2.4 0 .5.4.8l.6.6.6 1c1.3 1.1 3.7 3.2.7 4.3"/>
  <path fill="#1A1919" d="M51.2 108.1a6.6 6.6 0 1 0 0-13.2 6.6 6.6 0 0 0 0 13.2"/>
  <path fill="#FFFFFE" fill-rule="nonzero" d="M20.7 121.8a39.3 39.3 0 0 1 6.4-.5c1 0 2 0 3 .3 1.1.2 2 .5 2.8 1 .8.4 1.5 1 2 1.9a7.8 7.8 0 0 1-.6 7.6c-.9 1.1-2 2-3.5 2.4l1.6 1 5.1 8.5h-5l-5.1-8.8-2.3-.4v9.2h-4.4v-22.2Zm6.7 3.4a27.3 27.3 0 0 0-2.3.1v6.5h1.8c1.3 0 2.2-.2 3-.8.7-.5 1-1.5 1-2.7 0-1-.3-1.8-.9-2.3-.5-.5-1.4-.8-2.6-.8Zm23.2 17.4a7 7 0 0 1-2.6 1.3c-1 .4-2.2.5-3.5.5-2.6 0-4.4-.7-5.6-2.2A9.7 9.7 0 0 1 37 136c0-2.8.6-5 2-6.3a7.5 7.5 0 0 1 5.6-2.1c.9 0 1.6 0 2.4.3.8.2 1.5.5 2 1a5 5 0 0 1 1.5 2c.4.8.5 1.9.5 3.1a14 14 0 0 1-.3 3h-9.6c0 1.4.4 2.4 1 3.1.7.7 1.7 1 3.1 1a6.5 6.5 0 0 0 4-1.2l1.3 2.7Zm-6-11.7c-1 0-1.8.3-2.3 1-.6.6-.9 1.5-1 2.6h6c0-1.2-.1-2-.6-2.7-.4-.6-1-1-2-1Zm15.6 8.7c0-.4-.2-.8-.5-1l-1.4-.7a43 43 0 0 0-1.7-.7 4 4 0 0 1-1.8-1 4.5 4.5 0 0 1-1.9-3.9c0-1.5.5-2.7 1.4-3.5 1-.8 2.3-1.2 4-1.2a13 13 0 0 1 5.7 1.2l-1 3-1.8-.6c-.7-.2-1.5-.3-2.3-.3-1.2 0-1.8.5-1.8 1.4 0 .4.2.7.5 1l1.4.6 1.7.7a5 5 0 0 1 1.8.9c.5.3 1 .8 1.3 1.4.4.6.6 1.4.6 2.3 0 1.7-.5 3-1.6 3.9-1 .9-2.6 1.3-4.6 1.3a11.4 11.4 0 0 1-5.6-1.4l1.1-3.1c.5.3 1.2.6 2 .8a8 8 0 0 0 2.5.4c.6 0 1-.1 1.5-.3.3-.3.5-.7.5-1.2Zm6.4-11.6h3l.5 2h.1a6 6 0 0 1 2-1.9 6 6 0 0 1 2.8-.5c2 0 3.5.6 4.5 1.9 1 1.2 1.5 3.3 1.5 6 0 1.4-.2 2.7-.5 3.8-.3 1-.8 2-1.4 2.8-.6.7-1.4 1.3-2.3 1.7-1 .4-2 .6-3.1.6l-1.7-.1a2 2 0 0 1-1.2-.5v6.6h-4.2V128Zm7.1 3a3 3 0 0 0-1.9.7 4 4 0 0 0-1 1.8v6.7l1 .5c.3.2.7.2 1.3.2 1.2 0 2.1-.4 2.7-1.2.6-.9 1-2.3 1-4.2 0-1.4-.3-2.5-.8-3.3-.5-.7-1.2-1.1-2.3-1.1Zm8.9 5c0-2.7.7-4.8 2-6.3a7.1 7.1 0 0 1 5.6-2.1c1.2 0 2.4.2 3.3.6 1 .4 1.7 1 2.3 1.7.6.7 1.1 1.6 1.4 2.6.3 1 .5 2.2.5 3.5 0 2.7-.7 4.8-2 6.3a7 7 0 0 1-5.5 2.1 9 9 0 0 1-3.4-.6c-1-.4-1.7-1-2.3-1.7a7.2 7.2 0 0 1-1.4-2.6c-.3-1-.5-2.2-.5-3.5Zm4.3 0c0 .7 0 1.4.2 2l.6 1.5c.2.5.6.8 1 1 .4.3.9.4 1.5.4 1 0 1.9-.4 2.4-1.2.5-.7.8-2 .8-3.7 0-1.5-.3-2.7-.7-3.6-.5-.9-1.4-1.3-2.5-1.3-1 0-1.9.4-2.4 1.1-.6.8-.9 2-.9 3.8Zm23 8v-9c0-1.4-.2-2.3-.6-2.9-.4-.6-1-.9-2-.9a3 3 0 0 0-2 .7c-.5.5-.8 1-1 1.7V144H100v-16h3.3l.4 2.1h.2c.5-.7 1.1-1.3 2-1.8.7-.5 1.8-.7 3-.7.8 0 1.5 0 2.2.3a3 3 0 0 1 1.5 1c.5.5.8 1.2 1 2 .2.9.3 2 .3 3.1v10H110Zm13.7-4.4c0-.4-.2-.8-.5-1l-1.4-.7a43 43 0 0 0-1.7-.7c-.7-.2-1.2-.5-1.8-1a4.5 4.5 0 0 1-1.9-3.9c0-1.5.5-2.7 1.4-3.5 1-.8 2.3-1.2 4.1-1.2a13 13 0 0 1 5.6 1.2l-1 3-1.8-.6c-.7-.2-1.5-.3-2.3-.3-1.2 0-1.8.5-1.8 1.4 0 .4.2.7.5 1l1.4.6 1.7.7a5 5 0 0 1 1.8.9c.5.3 1 .8 1.3 1.4.4.6.6 1.4.6 2.3 0 1.7-.5 3-1.6 3.9-1 .9-2.6 1.3-4.6 1.3a11.4 11.4 0 0 1-5.6-1.4l1.1-3.1c.5.3 1.2.6 2 .8a8 8 0 0 0 2.5.4c.6 0 1-.1 1.5-.3.3-.3.5-.7.5-1.2Zm6.8-11.6h4.1v16h-4.1v-16Zm-.6-4.5c0-.6.2-1.2.7-1.6.4-.4 1-.7 1.9-.7.8 0 1.4.3 2 .7.4.4.7 1 .7 1.6a2 2 0 0 1-.8 1.5 3 3 0 0 1-2 .7c-.7 0-1.4-.2-1.8-.7a2 2 0 0 1-.7-1.5Zm13.8 12.8.6 2.5h.1l.5-2.5 2.7-8.3h4.5l-6.7 16.1h-2.5l-7-16h4.9zm21.9 6.3a11.4 11.4 0 0 1-6.1 1.8c-2.6 0-4.5-.7-5.7-2.2a9.7 9.7 0 0 1-1.8-6.2c0-2.8.7-5 2-6.3a7.5 7.5 0 0 1 5.7-2.1c.8 0 1.6 0 2.3.3.8.2 1.5.5 2 1 .7.5 1.2 1.2 1.5 2 .4.8.6 1.9.6 3.1a14 14 0 0 1-.4 3H156a6 6 0 0 0 1 3.1c.7.7 1.7 1 3.1 1a6.5 6.5 0 0 0 4-1.2l1.4 2.7Zm-6-11.7c-1 0-1.9.3-2.4 1-.5.6-.9 1.5-1 2.6h6c0-1.2-.1-2-.5-2.7-.5-.6-1.2-1-2.1-1Zm23.1 8.7c0-.4-.2-.8-.5-1l-1.4-.7a43 43 0 0 0-1.7-.7c-.7-.2-1.2-.5-1.8-1a4.5 4.5 0 0 1-1.9-3.9c0-1.5.5-2.7 1.4-3.5 1-.8 2.3-1.2 4.1-1.2a13 13 0 0 1 5.6 1.2l-1 3-1.8-.6c-.7-.2-1.5-.3-2.3-.3-1.2 0-1.8.5-1.8 1.4 0 .4.2.7.5 1l1.4.6 1.7.7a5 5 0 0 1 1.8.9c.5.3 1 .8 1.3 1.4.4.6.6 1.4.6 2.3 0 1.7-.5 3-1.6 3.9-1 .9-2.5 1.3-4.6 1.3a11.4 11.4 0 0 1-5.6-1.4l1.1-3.1c.5.3 1.2.6 2 .8a8 8 0 0 0 2.5.4c.6 0 1.1-.1 1.5-.3.3-.3.5-.7.5-1.2Zm6.8-11.6h4.2v16h-4.2v-16Zm-.6-4.5c0-.6.2-1.2.7-1.6.4-.4 1-.7 1.9-.7.8 0 1.4.3 2 .7.4.4.7 1 .7 1.6a2 2 0 0 1-.8 1.5 3 3 0 0 1-2 .7c-.7 0-1.4-.2-1.8-.7a2 2 0 0 1-.7-1.5Zm6.7 4.5h2.2v-3l4.1-1.2v4.2h4v3.5h-4v6.2a6 6 0 0 0 .4 2.3c.2.5.6.8 1.2.8.4 0 .8 0 1.1-.2l1-.3.8 3.2a10.6 10.6 0 0 1-4.4 1c-1.4 0-2.5-.4-3.2-1.2-.7-.7-1-2-1-3.7v-8h-2.2V128Zm24.9 14.6a7 7 0 0 1-2.6 1.3c-1 .4-2.2.5-3.5.5-2.6 0-4.5-.7-5.7-2.2a9.7 9.7 0 0 1-1.7-6.2c0-2.8.6-5 2-6.3a7.5 7.5 0 0 1 5.6-2.1c.8 0 1.6 0 2.4.3.8.2 1.5.5 2 1a5 5 0 0 1 1.5 2c.4.8.5 1.9.5 3.1a14 14 0 0 1-.3 3H211c0 1.4.4 2.4 1 3.1.7.7 1.7 1 3.1 1a6.5 6.5 0 0 0 4-1.2l1.3 2.7Zm-6-11.7c-1 0-1.8.3-2.3 1-.6.6-.9 1.5-1 2.6h6c0-1.2-.1-2-.6-2.7-.4-.6-1-1-2-1ZM35.7 172c0-2.7.6-4.8 2-6.3a7.1 7.1 0 0 1 5.5-2.1c1.3 0 2.4.2 3.3.6 1 .4 1.8 1 2.4 1.7.6.7 1 1.6 1.4 2.6.3 1 .4 2.2.4 3.5 0 2.7-.6 4.8-2 6.3a7 7 0 0 1-5.5 2.1c-1.3 0-2.4-.2-3.3-.6a7 7 0 0 1-2.4-1.7 7.2 7.2 0 0 1-1.4-2.6c-.3-1-.4-2.2-.4-3.5Zm4.3 0 .1 2 .6 1.5c.3.5.6.8 1 1 .4.3 1 .4 1.5.4 1.1 0 2-.4 2.5-1.2.5-.7.8-2 .8-3.7 0-1.5-.3-2.7-.8-3.6-.5-.9-1.3-1.3-2.5-1.3a3 3 0 0 0-2.4 1.1c-.6.8-.8 2-.8 3.8Zm11.3-8h2.2v-.9c0-2 .4-3.5 1.3-4.4.8-.9 2-1.4 3.7-1.4 1.7 0 3 .2 4.2.7l-.8 3.3a7 7 0 0 0-2.4-.4c-.5 0-.8 0-1 .2-.3 0-.5.3-.6.5l-.2 1v1.4h3.5v3.5h-3.6V180h-4.1v-12.5h-2.2V164Zm17.1 0h2.2v-3l4.2-1.2v4.2h4v3.5h-4v6.2a6 6 0 0 0 .3 2.3c.3.5.7.8 1.3.8.4 0 .8 0 1.1-.2l1-.3.8 3.2a10.6 10.6 0 0 1-4.4 1c-1.4 0-2.5-.4-3.2-1.2-.7-.7-1-2-1-3.7v-8h-2.3V164Zm22.2 16v-9c0-1.4-.2-2.3-.6-2.9-.3-.6-1-.9-2-.9a3 3 0 0 0-1.9.8c-.6.4-1 1-1.2 1.8V180h-4.1v-22.4h4.1v8.2h.2c.5-.7 1.1-1.2 1.8-1.6a6 6 0 0 1 2.9-.6c.8 0 1.5 0 2.1.3a3 3 0 0 1 1.6 1c.4.5.7 1.2 1 2l.2 3.1v10h-4.1Zm19.9-1.4a10.2 10.2 0 0 1-6.1 1.8c-2.6 0-4.5-.7-5.7-2.2A9.7 9.7 0 0 1 97 172c0-2.8.7-5 2-6.3a7.5 7.5 0 0 1 5.7-2.1c.8 0 1.6 0 2.4.3.8.2 1.4.5 2 1 .6.5 1.1 1.2 1.5 2 .3.8.5 1.9.5 3.1a14 14 0 0 1-.3 3h-9.6c0 1.4.4 2.4 1 3.1.7.7 1.7 1 3.1 1a6.5 6.5 0 0 0 4-1.2l1.3 2.7Zm-6-11.7a3 3 0 0 0-2.4 1c-.5.6-.8 1.5-.9 2.6h6c0-1.2-.1-2-.6-2.7-.4-.6-1.1-1-2-1Zm25.7 13.1v-8.7c0-1.5-.2-2.5-.5-3.1-.2-.7-.8-1-1.7-1-.7 0-1.3.2-1.8.6-.4.4-.7 1-1 1.5V180h-4.1v-16h3.2l.5 2.1h.1c.5-.7 1.1-1.3 1.9-1.8a5 5 0 0 1 2.9-.7c1 0 1.9.2 2.5.6a4 4 0 0 1 1.5 2c.5-.8 1.2-1.4 2-2a5 5 0 0 1 2.7-.6c.9 0 1.7 0 2.3.3a4 4 0 0 1 1.5 1 9 9 0 0 1 1 2.2l.2 3.3v9.6h-4.2v-9c0-1.3 0-2.2-.4-2.8-.2-.7-.8-1-1.7-1-.8 0-1.4.2-1.8.6-.5.4-.8 1-1 1.7V180h-4.1Zm15.4-8c0-2.7.6-4.8 2-6.3a7.1 7.1 0 0 1 5.5-2.1c1.3 0 2.4.2 3.3.6 1 .4 1.8 1 2.4 1.7.6.7 1 1.6 1.4 2.6.3 1 .4 2.2.4 3.5 0 2.7-.6 4.8-2 6.3a7 7 0 0 1-5.5 2.1c-1.3 0-2.4-.2-3.3-.6a7 7 0 0 1-2.4-1.7 7.2 7.2 0 0 1-1.4-2.6c-.3-1-.4-2.2-.4-3.5Zm4.2 0 .2 2 .6 1.5c.3.5.6.8 1 1 .4.3 1 .4 1.5.4 1 0 2-.4 2.4-1.2.6-.7.8-2 .8-3.7 0-1.5-.2-2.7-.7-3.6-.5-.9-1.3-1.3-2.5-1.3a3 3 0 0 0-2.4 1.1c-.6.8-.9 2-.9 3.8Zm23 8v-9c0-1.4-.2-2.3-.6-2.9-.3-.6-1-.9-1.9-.9a3 3 0 0 0-2 .7c-.5.5-.9 1-1.1 1.7V180H163v-16h3.3l.5 2.1h.1a5.7 5.7 0 0 1 5.1-2.5c.8 0 1.5 0 2.1.3.6.2 1.2.5 1.6 1 .4.5.7 1.2 1 2 .2.9.3 2 .3 3.1v10h-4.2Zm5.5-16h2.2v-3l4.2-1.2v4.2h3.9v3.5h-4v6.2a6 6 0 0 0 .4 2.3c.2.5.6.8 1.3.8.4 0 .7 0 1-.2.4 0 .7-.2 1-.3l.8 3.2a10.6 10.6 0 0 1-4.3 1c-1.5 0-2.6-.4-3.3-1.2-.7-.7-1-2-1-3.7v-8h-2.2V164Zm22.1 16v-9c0-1.4-.2-2.3-.5-2.9-.4-.6-1-.9-2-.9a3 3 0 0 0-2 .8c-.5.4-1 1-1.1 1.8V180h-4.2v-22.4h4.2v8.2h.1a5 5 0 0 1 1.9-1.6 6 6 0 0 1 2.8-.6c.8 0 1.6 0 2.2.3a3 3 0 0 1 1.5 1c.5.5.8 1.2 1 2 .2.9.3 2 .3 3.1v10h-4.2Z"/>
</svg>
