<svg height="630" width="575" xmlns="http://www.w3.org/2000/svg"><g transform="translate(40 40)"><path d="m310.2 89c17.8-23 31.3-55.4 26.4-88.5-29 2-63 20.6-83 44.8-18 22-33 54.6-27 86.3 31.6 1 64.5-18 83.6-42.6zm-285.2 108.7.5-.8c28-44 72.4-69 114-69 42.4 0 69 23 104 23 34 0 55-23.4 104-23.4 37 0 76.2 20.2 104.2 55.3-7.8 4.2-14.7 9-21 14.4h-405.7z" fill="#61bb46"/><path d="m23.5 197c-12 19-20.5 46.5-22.5 70.4h392c4.4-26.4 18.5-51.4 41-70.4z" fill="#fdb827"/><path d="m4.4 337c-3.8-24.6-4.4-48-2-69.7h389.2c-3.8 23.4-.6 47.8 9 69.6h-396.2z" fill="#f5821f"/><path d="m23.4 406.4c-9-23.4-15.4-46.8-19-69.4h396.2c12.3 27.6 35 51.2 67 63.4-1 2-2 4-2.8 6z" fill="#e03a3e"/><path d="m464.8 406.5c-11 24.2-17.4 36.7-32.6 60-2 3-4 6.3-6.3 9.5h-365.9l-3.5-5.2c-13.6-21-24.7-42.6-33.3-64.4h441.4z" fill="#963d97"/><path d="m426 476c-22.5 33-52.5 69-89 69.4-35.5.4-44.6-23.2-93-23-48 .3-58.2 23.5-93.7 23-38-.2-67.6-35.8-90-69.4z" fill="#009ddc"/></g></svg>