<svg xmlns="http://www.w3.org/2000/svg" width="100%" height="100%" viewBox="-10 0 960 640">
  <style>
    .background {
      fill: mark;
    }

    .path {
      fill: currentColor;
    }

    .broken-path {
      stroke: currentColor;
      stroke-dasharray: 20,15;
    }

    .broken-mask {
      animation: dash 12s linear forwards;
      animation-iteration-count: infinite;
      stroke: white;
      stroke-dasharray: 16,12;
      stroke-dashoffset: 1000;
    }

    @keyframes dash {
      to {
        stroke-dashoffset: 0;
      }
    }

    @media screen and (prefers-reduced-motion: reduce) {
      .broken-mask {
        animation: none;
        stroke-dasharray: 0;
      }
    }
  </style>
  <defs>
    <path id="path1" fill="none" stroke-linecap="round" stroke-width="4" d="M216 535c65-3 111-2 139 4 89 18 176-4 225 0 71 5 87 18 99 0 21-30 19-118 8-134s-30 4-46-10-19-95-29-107-32-28-81-22-126 7-163-6-57-44-74-60-83 16-83 38c0 15 7 19 23 14 8-12 10-38 6-78s2-80 19-117c25-25 54-37 87-37 49 0 52-1 63 23s-7 62 17 70c16 5 22-16 18-63 9-24 19-36 31-36 18 0 45-4 40 36s-15 64 0 70 26-26 26-54-9-51 0-58 28-6 83-6 77 10 83 24-10 39 7 47 22-9 26-38 44-32 57-21 27 42 17 68-28 17-28 38-6 75 0 97-21 17-29 30-13 67-13 91-30 26-43 11 13-38-35-38-25-13-25-45-6-37-38-28-50 4-50-38 55-61 71-61 37-17 96-5 78-3 94 16 5 62 0 97-28 27-28 69-7 89-7 127-31 38-41 8-17-76 15-86 62 0 94 0h49"/>
    <mask id="mask1"><use class="broken-mask" href="#path1"/></mask>
  </defs>
  <path class="background" d="M60 60h900v580H60z"/>
  <use class="broken-path" href="#path1" mask="url(#mask1)"/>
  <path class="path" d="M52 441.9c-7.3 2-14.2 5.2-20.5 9.5a71.4 71.4 0 0 0-21 27.4c-5.8 12.4-9 25.8-9.6 39.5-1.2 8.4-1 16.9.4 25.2 1.7 12.2 5.8 29.9 7.8 33.6a3.6 3.6 0 0 0 3 1.9c1.8 0 1.8-.2.5-2.3-1.9-2.8-6.1-19.9-7.5-30a144 144 0 0 1 2-46.2l2.1-8c.5-2.2 3.1-8.3 5.6-13.5 3.9-8 6-10.9 13.2-18a44.5 44.5 0 0 1 29.7-15.1c8.6-1.7 17.5-.6 25.4 3.1a74 74 0 0 1 26.4 18.4c10.5 10.7 15.7 17.8 18.3 24.9 2.7 7.2 2.7 7.7.2 7.7-1 0-3.9.6-6.2 1.4-2.4.8-9.9 2.2-16.8 3.1-6.9.9-16.1 2.5-20.5 3.6l-14.7 3.4c-8 1.7-22.9 7.4-31.5 12.1-5 2.8-6 3.8-5.6 5.4.7 2.5.8 2.5 6.3-.5 6-3.6 12.6-6.4 19.3-8.5a4 4 0 0 0 2.3-1c1.1-1.1 24-6.2 28.4-6.4 1.8-.1 2.6.6 3.2 2.4l2.8 9.2c1.1 3.7 2.4 10.7 3 15.5.4 4.2 1 8.3 1.6 12.4l.6 3.5-5.8 1.2-12.4 2.3c-11.9 2-18 4-18 6.1 0 2.2.7 2.2 5.1.4 1.9-.7 6.1-1.7 9.4-2 5.1-.6 14.5-2.5 20.6-4.2 1.7-.5 2.6 2.2 3.5 10.1.8 7.1 1.6 9.5 2.9 9.5 1.8 0 1.9-2.7.5-12.4-.6-3.8-.8-7.1-.5-7.4.7-.7 11.3 2.6 12 3.8 1 1.5-1.4 5-3.4 5s-3.1 2.6-3.1 7.8c0 4.6 3.4 4.2 3.8-.5.3-2.9.7-3.2 6.7-4.7 3.5-.9 8.8-1.6 11.7-1.6 2.9 0 8-.7 11.3-1.5 3.3-.8 8.5-1.4 11.6-1.5h5.6l.7 3.8c.3 2 .6 5 .6 6.5 0 2.2.4 2.8 1.8 2.5 1.4-.3 1.7-1.4 1.4-7.3-.1-3.8-.8-7.5-1.4-8.2-.6-.8-3.4-1.3-7.4-1.3-3.5 0-6.4-.3-6.4-.8 0-.4-1.7-1.6-3.7-2.7a58.2 58.2 0 0 1-9.8-7.5c-7.3-6.6-13.2-8.4-24.3-7.4l-8.8.7c-1.4.2-1.8-.7-2.1-3.8-.5-4.6-3.9-17.8-6.4-24.7l-1.7-4.6 6.2-1.1a318 318 0 0 1 10-1.6l11-2c3.9-.8 8.3-1.5 9.7-1.5 4 0 4.2-2.2.9-11-2.9-9.5-8.2-18-15.5-24.8-8-10-18.3-18-30-23.4-6.1-3.3-13-4.8-20-4.4-6-.1-12.6.1-14.5.5zm74.5 106.2c5.3 1.5 12.9 9.1 11.6 11.7-.5.9-1.2 2.5-1.5 3.5-.7 2.2-3.3 2.2-8.1-.3-2.2-1.1-4.5-2-5.1-2a28 28 0 0 1-6.1-2.4 41.2 41.2 0 0 0-8.8-3.2c-2.2-.4-4.3-1.2-4.7-1.8-1.4-2.1-.8-4.3 1.5-5.4 7-1.4 14.2-1.5 21.2-.1zm20 13.9c.3.5.2 1-.4 1-.5 0-1.3-.5-1.6-1-.3-.6-.2-1 .4-1a2 2 0 0 1 1.6 1zM67 450.7c.1 2.1 7.6 8 8.7 6.9 1.1-1.1-.7-3.6-3.9-5.6-3.5-2.1-4.8-2.5-4.8-1.3zm-24 6.8c-1 3.4-1 4.9-.2 5.7 1.5 1.5 2.2.7 3.2-3.9.7-2.8.6-4.2-.4-5.1-1.1-1.1-1.5-.5-2.6 3.3zm17-2v2.4l-3.4-2c-3.9-2.3-5.1-1.4-4.1 3 .7 3.3 4.2 7.4 5.8 6.8.6-.2 1.4-1.4 1.7-2.8l.6-2.4 1.2 2.2c.8 1.5 1.8 2 3.3 1.6 2.9-.8 3.3-2.6 1.3-6.5-2.7-5.3-6.4-6.7-6.4-2.3z"/>
  <path class="path" d="M52 442c-7 2-14 5-20 9a71 71 0 0 0-21 28c-6 12-9 26-10 39v25c2 13 6 30 8 34a4 4 0 0 0 3 2c2 0 2 0 1-2-2-3-6-20-8-30a144 144 0 0 1 2-46l2-8 6-14c4-8 6-11 13-18a45 45 0 0 1 30-15c8-2 17-1 25 3a74 74 0 0 1 26 18c11 11 16 18 19 25 2 8 2 8 0 8l-6 1c-3 1-10 3-17 3l-20 4-15 4c-8 1-23 7-32 12-5 2-6 3-5 5 0 3 0 3 6 0 6-4 13-7 19-9a4 4 0 0 0 3-1l28-6c2 0 3 0 3 2l3 9 3 16 2 12v4l-6 1-12 2c-12 2-18 4-18 6s1 2 5 1l9-2 21-5c2 0 3 3 4 10 0 8 1 10 2 10 2 0 2-3 1-12v-8l12 4c1 2-2 5-4 5s-3 3-3 8c0 4 3 4 4-1 0-3 0-3 6-4l12-2 11-2 12-1h6v4l1 6c0 2 0 3 2 3l1-8-1-8-8-1-6-1-4-3a58 58 0 0 1-10-7c-7-7-13-8-24-7h-9l-2-4-6-24-2-5 6-1a318 318 0 0 1 10-2l11-2 10-1c4 0 4-2 1-11-3-10-8-18-16-25-8-10-18-18-30-23-6-4-13-5-20-5l-14 1zm75 106c5 2 12 9 11 12l-1 3c-1 3-4 3-9 0l-5-2a28 28 0 0 1-6-2 41 41 0 0 0-8-4l-5-1c-2-2-1-5 1-6h22zm20 14-1 1-2-1 1-1a2 2 0 0 1 2 1zM67 451c0 2 8 8 9 7 1-2-1-4-4-6-4-2-5-3-5-1zm-24 6v6c1 2 2 1 3-4v-5c-1-1-2 0-3 3zm17-1v2l-3-2c-4-2-5-2-4 3 0 3 4 7 5 7l2-3 1-3 1 3c1 1 2 2 3 1 3 0 3-2 1-6-2-5-6-7-6-2zM661 19c-5 1-7 3-9 9a36 36 0 0 0-2 9c0 4-3 12-5 14-3 2-5 1-6-4l-2-7a13 13 0 0 1-2-4l-6-4c-7-3-12-3-23 0l-7 1c-4 0-5-1-10-6-7-7-10-8-20-6-10 1-13 3-22 11a316 316 0 0 1-8 7 72 72 0 0 1-5 2c-3 2-12 2-15 2l-14-4c-12-3-18-2-27 7l-7 5a1181 1181 0 0 1-133 3 320 320 0 0 1-49 3c-3 1-2 19 2 20 2 1 16 2 42 2l25 2 1 9-1 8-7-1a508 508 0 0 1-31-2l-25-3c-6 0-6 0-6 3l-4 12-4 8-1 5c0 2 0 3 3 4l4 1c15 3 31 4 47 3h24l10 1 1 5c0 4 0 12-2 18-1 3-1 4-5 4a1033 1033 0 0 1-79 1l-1 8c0 7 3 18 5 19l12 1 16 1 29 2h25l-1 11v9l-4 1h-7l-63-2h-15v21l-1 21-12 1-11 2-1 7a1984 1984 0 0 0 0 125l15 2a255 255 0 0 1 26 1h11l4 5c2 3 5 6 8 7 4 2 4 2 10 1 9-3 13-3 16 0 4 3 11 5 15 4l10-3c7-2 13-3 18 0 6 2 16 4 20 3 5-1 8-3 16-9l8-6h9c11 0 16-2 18-11 1-4 1-8-1-10l-5-9c-3-7-4-8-3-11l3-7c3-3 4-5 2-7l-1-1 25-1h5v23a58 58 0 0 0 10 18l14 9a36 36 0 0 1 6 3c11 5 23 6 56 6 16 0 30 2 35 4l7 3c3 1 7 2 9 4a64 64 0 0 1 20 21c3 8 3 8-5 8l-19 1-2 4c-3 7-15 24-16 23l-1-2v-6l-1-12-4-37c-3-3-6 1-16 19a200 200 0 0 1-22 34l-1-3-2-8-7-21-3-11c-2-5-3-7-5-7l-26 43-10 14-15-31-7-18c-2-2-2-2-3-1-9 14-43 59-45 59l-5-11c0-4-16-39-18-41l-2 1c-6 10-18 27-25 35-8 10-8 10-9 8l-5-11a93 93 0 0 1-5-16c-3-12-7-23-9-24-2 0-5 6-18 31l-9 17c-1 0-7-13-10-24l-9-22c-2-4-4-3-9 7l-9 16-9 14-5 8-3-10-6-15-4-9c-3-7-5-9-7-10l-2 1-5 10a109 109 0 0 0-8 13c-1 2-2 2-14 3h-12v-4l-1-5c0-1-2-3-6-3-2-1-3-2-3-6-2-14-2-15-6-14a80 80 0 0 1-10 0l-8 1v9c-1 9 1 43 3 64a918 918 0 0 1 5 95c2 0 2-1 2-20v-29l-2-19-1-18v-9l-1-11-2-45-1-13h4l7-1h5l1 10 2 48a1862 1862 0 0 0 4 107l3-1v-28c1-4 1-4 4-4 4 0 4-1 4-5l1-5-1-5a17 17 0 0 1 0-5c0-5-1-6-7-6h-3v-17l4-1c3 0 4 0 4-2l1-6c0-4 0-4 5-5 12-4 15-3 20 3 8 11 14 15 23 15 10 0 14-1 18-6 5-5 12-9 19-10h6l5 5c3 2 6 6 6 8 2 3 11 9 17 13l11 3c7 0 10-1 21-8a36 36 0 0 1 22-7c7 0 9 2 17 9l8 8c17 8 23 10 33 9 7-1 13-4 20-11 6-6 13-9 20-9 6 0 7 1 14 5 11 6 16 8 21 8 6 0 9-2 15-10 6-7 17-14 23-16 5-1 19 0 20 1l6 1 12 3c13 3 25 0 33-7 6-7 11-15 15-24l2-9a54 54 0 0 0 1-17c-1-10-1-11 1-11h4c3 1 22 2 23 1 1-2 2-15 1-45v-10c1-1 15-2 19-1 3 0 4 1 4 4a341 341 0 0 1 6 47l21 2h26a841 841 0 0 1 60-1l1-16 1-15h22l1-3 1-34c0-31 0-32 2-32l11-11c1-1 4-4 8-5 7-4 8-5 8-9a56 56 0 0 0-7-19c-3-3-2-6 2-10a30 30 0 0 0 6-8c1-4 2-14 0-14l-1-2 11-1 12-1 1 3c1 4 5 5 10 2 6-2 7-5 7-11 0-4-3-6-9-7-3-1-4-1-7 4l-4 4h-13l-12 1-3-4c-3-4-4-8-2-12 1-3 2-4 5-5s3-2 2-4l-1-5v-15l3-6c2-1 3-2 6-1l5 1c1-1 2-5 2-13 1-5 3-8 6-9 3-2 3-2 6 0l6 2 5 2c5 4 7 4 12 3 6-2 8-7 4-12a24 24 0 0 0-12-7c-2 0-6 5-8 8-1 3-2 4-6 2a18 18 0 0 0-7-2c-6 0-8 3-11 17l-1 6-4-1c-3-1-3-1-6 2-5 5-7 13-5 22l2 6-3 2c-6 5-7 11-3 18l2 4h-24l-7-1 1 11 2 21a276 276 0 0 1 3 35v17h-3l-9-4-6-3-1-14c0-16 0-22-2-24-2-1-4-2-13-2l-21-3c-14-1-15-1-15 4l-3 27a86 86 0 0 1-1 10c-1 2-7 0-9-2s-2-3-1-8c0-5-1-8-4-9l-8-3a6 6 0 0 1-6-6l-1-5a74 74 0 0 1-4-15l-3-14-13-1c-11 0-12 0-11-2 2-6 2-7-5-13a27 27 0 0 1-6-8l9-12c5-5 5-5 11-5h7l-1 5 1 11 1 6h16a92 92 0 0 1 23 2c1-1 4 0 12 2a207 207 0 0 0 30-3l3-2c2-2 2-5 3-21l1-29c6 7 18 6 28-1 3-2 4-4 2-9l-2-4 6-2c9-5 13-10 13-17 0-4-8-17-11-18-5-2-4-11 2-17 12-11 13-12 14-16 2-8-2-15-10-17a9 9 0 0 0-7 2l-4 1-4 1c-5 1-12 1-13-1a14 14 0 0 1 0-4c-1-5-2-6-6-9-3-2-5-3-12-3-9 0-10 0-20 10-6 5-9 7-11 6l-1-9c-1-14-4-29-5-30l-3-2a316 316 0 0 0-60-5c-3 0-4-1-4-4-1-7-5-11-13-17-8-4-17-7-22-5zm17 7c8 4 10 6 11 9l2 6c1 5 1 5-13 5l-12 2-5 23v27c0 19-1 23-4 19-3-5-10-7-12-4l-2 1-4 2-3 2 4-7c3-5 5-11 4-15l-7-8-5-5v-8l2-8 2-6c2-4 2-4 6-5l7-3c3-4 6-10 6-15s3-13 6-15c3-1 9-1 17 3zm-73 10c9-2 17-3 21-1s8 8 8 13c0 3 0 3-3 3-9 0-14 4-17 12-3 6-7 9-14 8h-6V57c1-3-1-5-8-5a636 636 0 0 0-41 0 925 925 0 0 1-64-2c-1-1 4-5 9-8h13l11 3a34 34 0 0 0 17 1c8-2 10-4 21-13l12-7c12-4 15-3 22 4 7 8 11 9 19 6zm110 15 11 2h16l10 2c6 1 8 2 8 3l4 32c0 2 0 2-6 2l-9-2c-2 0-3 0-5 2a74 74 0 0 1-12 12 45 45 0 0 1-1-8l-1-8c-1-2-8-3-13-3l-11-1-6-1c-1 1-3 10-3 18l-1 5c0 2-4 2-6 0h-5c-3 1-3 1-3-2s2-8 6-13c5-5 6-9 3-15a123 123 0 0 1-4-17l7-7c2-2 2-2 10-1h11zm-32 11 3 9c3 9 3 12-2 18-3 3-5 7-6 12l-1 7c1 2-8 12-10 12l-1-19c0-19 0-26 3-42l1-7h5l10-1h4l-3 2c-2 3-5 4-4 9zM465 72l-4-2a42 42 0 0 0-8-3h-10c-4 0-14 4-18 6a15 15 0 0 0-4 6c-2 5-6 6-14 4-10-3-12-3-18 2-7 5-9 10-11 19 0 4 3 12 7 16s4 9 1 15a25 25 0 0 0 2 24c5 7 5 12 2 16s-7 14-7 18a36 36 0 0 0 4 10c4 10 5 15 2 18-2 3-3 3-9 3-9 0-13 2-19 10-3 4-3 9 0 13 4 4 5 9 3 9a74 74 0 0 1-4 6c-5 7-6 8-5 11a25 25 0 0 0 2 5l2 5-1 7c-2 2-3 2-8 2h-6l-1-14c-1-16-3-25-5-27-1-2-4-2-27-2l-26-1-1-10-1-18v-8h43a799 799 0 0 1 46 1l1-8 1-16c2-6-4-7-33-7a207 207 0 0 1-44-2h-7l-1-5c-2-6-2-13-1-14h41c31 0 40-1 41-2 3-2 4-24 3-31-1-5-12-6-52-5l-28-2c-9-1-9-1-6-9a132 132 0 0 1 6-14h18l15 1 22 2h15V78c-1-4-18-3-33-4l-32-1c-5 0-5-1-6-3v-6c0-2 1-3 4-3l34-2a900 900 0 0 1 84-1 675 675 0 0 1 49-2l6-1-2 8-2 9zm61-16 23 1a291 291 0 0 0 34 1h6v4l-1 5c0 2-1 2-5 0-7-2-14-1-20 1l-7 4c-3 3-4 4-9 4-7 1-11-1-20-6-6-4-11-5-21-2-11 2-16 4-20 7s-9 4-13 2c-3-1-3-2-3-5 0-6 1-11 3-14 2-2 2-2 19-2h34zm106 2-5 20c0 5 2 8 5 11l5 4c3 3 3 10 0 13l-4 8-4 5-5-3-8-4c-4-1-4-1-3-5l1-8c1-3 1-4-1-5a8 8 0 0 0-5-2 62 62 0 0 1-9 0c-7-1-8-2-7-5v-7l2-5a29 29 0 0 0 16-1c3-1 4-3 7-8 3-7 7-10 12-10 4 0 4 0 4 2zM527 73l4 3c3 2 7 4 15 4 9 0 9 0 12-2l7-6c4-2 5-2 10-2l10 2 4 1v8a66 66 0 0 1-1 9h-16a1368 1368 0 0 0-51 2l-47 1-1-4c-2-9-2-8 5-8l8-1 11-6h2a55 55 0 0 1 23-3l5 2zm287 14c1 6 4 9 10 10l9-1c12-4 13-4 16-3s4 3 4 7c0 5-2 9-6 11-8 5-14 14-14 21 0 3 3 8 7 10 3 1 7 9 7 14 0 4-3 9-8 11l-9 4c-2 2-2 4 0 6 1 2 2 3 2 7-1 3-9 6-13 6-5 1-12-4-14-9v-38c-1-18-3-25-4-27l-5-1h-26V98l3-1c2-1 4-1 8-5s9-11 15-11h12c3 0 5 2 6 6zm-92 4 5 1s2 11 1 12c0 2-5 1-7-1l-7-3h-8c-3 2-3 2-3 0l1-7 1-4h6l10 2zm34 6 5 1 3 1v8l1 8h-18l-13-1c-2 0-1-4 2-5l8-8c5-6 7-7 12-4zm-172 9c0 6 0 6-2 5h-8l-7 5-6 5-5-3c-3-3-5-4-9-4l-6 1a22 22 0 0 1-3 2c-2 1-3 3-4 6v8l2 4h-8c-18 2-17 2-25-5l-10-10c-6-5-17-19-16-21h13l23-1 12-1a493 493 0 0 1 38-1h23v2l-2 8zm19-8h6l-1 7c0 11-1 11-4 13-5 3-11 3-13 0-3-2-3-5-1-18 1-4 1-4 4-3l9 1zm-131 1 3 6a69 69 0 0 0 13 17l8 7 8 7h-10l-19-1-29-1c-25-1-32-2-33-4a135 135 0 0 1-1-29l14-1 46-1zm250 9c7 3 8 6 2 6l-20-1c-2-1-1-4 2-6 2-3 3-3 6-3l10 4zm-26 5 2 1c-1 1 0 2 1 3 2 3 4 3 15 3l13 1v8l-1 7a255 255 0 0 0-3 11h-15a469 469 0 0 0-27 0l4-5 6-4c2-2 1-11-3-15l-2-6c-2-5-2-5 0-7 2-1 3-1 6 1a9 9 0 0 0 4 2zm-114 3-1 9-2 9h-8l-19 1-13-1-1-6c0-5 2-7 8-10 4-2 5-1 9 3 5 5 8 5 14 0 2-3 5-5 6-5h7zm79 10v11l1 16c1 2 3 2 9 2l8 1v6c0 5-1 6-3 8-3 3-8 4-13 1-6-3-17 1-21 6a44 44 0 0 0-3 11c-2 9-4 12-7 13-2 1-5 3-8 7-5 5-5 5-10 5l-4-1-1-6c0-7 1-30 3-33 0-2 2-2 10-2 11 0 14-1 18-8 3-5 3-14 0-21-3-5-6-9-6-14s0-5 3-5l6-3a21 21 0 0 1 9-5l5 4c3 3 4 4 4 7zm25 3 1 5-5 4c-5 4-6 4-6 8l-1 3h-5l-3 1-1-13v-12l5-1c3-1 5-2 6-5 1-4 3-4 5-1a87 87 0 0 0 2 6l2 5zm-64-12 5 4c3 2 3 3 2 8 0 3 0 5 2 8 7 13 8 16 6 23-2 5-5 7-16 7h-9v-14a584 584 0 0 1 4-36h6zm-23 7 7-1 1-1a431 431 0 0 1-2 47c-5 1-8 4-11 8-3 3-3 7 0 10l3 6c0 3 0 4-3 7-5 4-8 12-8 16l1 5a11 11 0 0 0 6 8c9 4 5 10 4 13 0 2-2 7 0 11 2 3 6 7 10 8 7 1 12 1 17-1 4-1 5-2 6-6l1-12c0-7 0-10-4-19l-2-4h9l12 2h4l1 6a41 41 0 0 1 0 9c-1 4 1 26 2 27l11 1h24c-2 2-1 13 2 19a18 18 0 0 0 4 4c5 3 13 4 19 1 6-2 11-2 11 1l3 22 1 12v3h-14l-17-1-10 1h-8l-2-20-2-12-17-1a163 163 0 0 1-23-1h-8l-17-2-6-1-12-2-11-2h-4l1-20a341 341 0 0 1 0-26v-25a421 421 0 0 0-7-48c-2-5-4-7-19-7-13 0-15-1-15-4l4-5c2-2 2-3 2-6l-1-4h20l20-1 4-13c0-5 2-6 5-4l8 2zm166-3-1 7-2 24-1 17-5-1-8-2c-4 0-5 0-6 3l-2 4-2 5c-2 2-3 2-7 2l-10-4c-10-5-19-5-21-1 0 2-3 7-7 10-1 2-3 2-11 2l-12-1-9-2h-6l-1 3-2 14c-1 11-2 15-4 15l-12-1-10-2c-1 0 6-7 10-9 3-1 6-6 6-11l2-8c2-6 5-9 11-11h8c6 3 13 3 16 0 3-2 5-10 5-13l-2-4c0-2 2-3 13-3l21-2h11l1-4 4-24v-4h13l17 1h3zm28 0h4l2 7c1 7 2 28 1 40v5l-4-3c-5-2-12-3-15-2l-4 3c-2 2-8 3-9 1v-17l1-27 1-7h23zm-254 21-3 6c-4 4-4 5-2 10l-6 1-10 1h-3l-1-7v-10c-1-2-1-2 9-2h13l3 1zm2 26c4 4 4 8 1 11l-3 5c-2 5 0 7 6 12 3 3 6 6 7 9l1 4-4 4a32 32 0 0 0-5 8c-1 4-3 4-3 1 0-9-3-29-4-30l-21-1h-22c-1 0 0-2 8-10l8-11 2-6h16c5-1 10 0 13 4zm-89-3h55l-1 4-9 10-8 9c-1 2-3 2-14 3l-13 1-1 9c-1 12-3 21-5 22-1 1-2 1-7-1-9-5-11-5-16 0-6 5-7 7-7 12 0 3 0 3-4 3h-5v-69c1-2 11-4 17-3h18zm119 40c2 10 2 20 2 38l-1 37v4l-12-1h-12l-12-1-16-1c-4 0-5 0-5-4a44 44 0 0 0-13-20l-10-10-4-5 4 1a555 555 0 0 0 34 1c13 1 13 1 13-1l2-13 2-2c3 0 6-3 6-6l4-6c4-4 5-4 4-8-2-6-6-11-11-15l-4-5 3-6c5-6 5-9 1-13a15 15 0 0 1-3-4l21 1 7 39zm190-30-2 35-19 1-19 1-1-5c-1-7-4-16-6-18l-8-1a28 28 0 0 1-7-1c-1 0 3-7 6-9 3-3 4-3 10-1l10 5c4 2 12 3 15 1l3-5 3-7h11c4 2 5 2 4 4zm39 16-1 16-2 15v12c-1 2-2 3-15 4h-18l-12-2-19-1h-11l-1-9v-8l5-1h37l1-3 1-17 2-20 4 1c4 0 7-1 10-4 1-2 5-3 10-2l7 4c2 3 2 4 2 15zm-194-14-2 21c0 19 0 19 10 20 5 1 7 2 7 3l2 6c2 2 3 6 3 8 1 4 1 10-1 17-1 4-5 6-11 6-8 0-14-4-14-11 0-3 2-3 2-11s-1-7-8-12c-3-2-3-3-3-7 0-5 1-7 3-10l4-5c1 0 3-5 3-8l-2-7-2-6c0-2 6-7 9-9v5zm70 14c10 1 12 2 10 3l-1 5c0 2 1 4 5 8 5 5 5 5 3 6l-13 1-17 2h-7l1-5 1-9a60 60 0 0 1 2-12l2-1 14 2zm31 2 4 1 4 16 1 3h-8c-7 0-8 0-8-2l-5-6c-5-4-6-8-3-10 1-2 9-3 12-2h3zm-224 3-4 17-1 7-4-2-8-1-3 1 1-11 2-11 8-1 9-1v2zm44-1c6 0 6 0 6 3l2 15c0 12 0 12-2 12a6 6 0 0 1-4-2c-6-7-7-8-12-8-6 0-9 2-15 7l-8 5c-3 1-4 1-7-1l-4-4c-1-3 3-23 6-26l16-1h22zm-3 27 7 6c4 1 4 1 4 7 0 4 0 5-2 5h-23l-15-1c-9 0-12-3-12-9v-3l4 2c7 4 11 2 19-5s13-8 18-2zm167 1-6 7-2 4c0 3 3 7 7 10a21 21 0 0 1 5 4c1 2-1 8-2 9l-18 2c-16 0-17 0-18-2v-19l-1-17h14l14-1a87 87 0 0 0 11-1l-4 4zm-216-1c2 1 3 2 4 8l1 8h-15c-4 0-4 0-4-4l1-6c0-2 1-4 3-5 4-2 7-2 10-1zm-26 3 7 3 1 5v5h-8l-14-1c-5 0-5 0-5-3s1-4 4-8l7-4 8 3zm-16 30 3 10-4 5a13 13 0 0 0-4 4c0 4 2 10 4 12 3 3 8 12 8 16a26 26 0 0 1-3 9c-4 7-3 9 3 13l4 3-14 1h-14v-34l-1-23v-7l2-19c0-4 0-4 5-4 4 0 4 0 6 4a233 233 0 0 0 5 10zm24-2v18l1 7c1 3 3 4 20 5h12l12 1c7 1 9 2 9 3a52 52 0 0 1-11 19c-9 11-14 18-14 20l-18 1h-19l-5-3-5-5c-1-1 1-4 2-7 4-6 5-11 3-15a68 68 0 0 0-9-13l-2-5c0-4 0-5 2-7l4-2c2-3 1-5 1-6 1-1-4-10-5-14l-3-6-1-3c8 0 17 0 25 2l1 10zm-46 1v74h-25c-2 0-2-5-2-42s1-41 2-42l14-2h12l-1 12zm85 3 4 4c6 6 11 12 11 16l1 4h-7l-13-2a222 222 0 0 0-29-3c-2-1-2-2-2-8v-26h22l5 7c3 4 6 8 8 8zm370-2c1 4 1 12-2 16l-5 6c-4 4-4 8 0 13 3 5 6 15 5 18l-6 5c-6 3-10 7-14 12l-4 4-1-12-1-23-4-36-1-6h31l2 3zm-585 39 1 13 4 37c2 3 7 2 19 2l6 7c5 5 6 11 2 15a56 56 0 0 0-5 11c-1 2-2 3-5 3-5 1-43-2-44-2V270l1-14 8-1 10-1c1 0 2 2 2 18l1 22zm51-39c4 0 4 0 6 19l2 12v5h-6c-8 1-18 8-22 15-1 3-1 4 1 7l4 4c4 3 4 5-2 10a25 25 0 0 0-7 9l-2 5h-8c-6 0-7 0-7-2a1105 1105 0 0 1-6-64 80 80 0 0 1 1-13v-8h21l25 1zm390 20 2 8-5 1-9 1c-8 4-15 1-18-8-1-4 0-10 2-13l13-1h12l2 3 1 9zm74 12 8 1c5 0 5 1 6 3v13l-1 14-1 3-14 4c-5 3-8 2-14-3-4-4-5-4-8-4l-5 2c-2 0-2 0-2-8l4-25c1-2 2-2 7-2l10 1 10 1zm-242 0 18 2-1 10c0 11-2 26-3 26l-11 1c-15 1-66 2-66 0l14-18c5-6 6-8 8-15l3-7h10l28 2zm39 4 55 7h22l2 22 1 6-19-1a345 345 0 0 1-41-1 189 189 0 0 1-19 1c-1 1-2 13-1 26a442 442 0 0 1 3 28c1 1 3 2 8 1h42l16 1h11v51h-13l-12-1-2-6a54 54 0 0 0-23-27 125 125 0 0 0-30-10l-28-1c-37-1-39-1-58-11-11-5-19-14-19-22-1-7 0-18 1-20l19-1a776 776 0 0 0 56-4c7 0 10-1 10-2l2-29v-9l5 1 12 1zm-254 20-1 19v10h-14l-13 1c0-2 3-7 8-12 6-6 6-6 5-9a24 24 0 0 0-5-6c-4-5-4-7 2-12 5-5 11-8 15-8 3 0 4 1 3 4l-1 12zm405-7c1 1 4 1 2 7-2 3-1 7 3 11 5 3 9 2 9 3l2 12c2 19 1 19-1 28v21c1 14 1 15 4 16h6l8-2h19l13 1-1 27-13 1-33-1a291 291 0 0 1-34 0h-8c-6 0-8-1-9-2l-1-7-5-42-14-1h-12v-46h47c6 0 8-2 8-5l-3-17v-8c7 4 12 3 13 4zm42 25h6c2 0 6-1 8-3 8-3 9-3 10 4a598 598 0 0 1 1 37v12l-1 14v3l-10-1h-27l-7 1-1-10v-18l1-8-1-15a109 109 0 0 1-1-21l4-1c5-3 8-2 9 1l8 5zm34-1 10 4 5 1v30l-1 18v14l-9 1h-9l-1-28c1-14 0-29-1-43l6 3zm-152 2h5l1 9-1 37h-27l-11-1a262 262 0 0 0-29 1h-6v-7l-1-10v-16l-1-14 8-1 8-1a307 307 0 0 0 26 2l28 1zm-219 10-4 9 5 13 5 12c0 4-3 10-6 11l-11 1-8 1a19 19 0 0 0-8 4c-11 11-16 12-30 8-11-3-18-4-21-2a62 62 0 0 1-9 3l-6 2-8-4c-7-4-7-4-24-1-4 0-5 0-8-4-4-4-5-7-2-7l28-1a507 507 0 0 0 61-3c12 1 12 1 13-2l1-48h16c16 0 17 0 18 2s0 6-2 6zm142 75 1 21c2 29 2 33 4 34l3-1 4-5 6-9 3-5 3-6c4-8 4-7 20-9 11 0 10-1 10 14 0 17-3 27-13 40a29 29 0 0 1-21 11l-32-5c-6-2-12-2-18-1a45 45 0 0 0-12 6c-7 4-9 6-17 15-4 4-4 5-10 4-6 0-14-3-21-9-10-7-24-4-37 8l-10 7c-12 5-33-1-47-16-9-8-11-9-22-8-7 1-15 4-27 11l-9 4c-8 0-24-8-27-15-3-5-10-12-14-13l-8-1a36 36 0 0 0-20 11c-3 4-6 5-13 5-9 0-15-3-19-9l-7-8c-3-3-4-3-9-3l-11 1-5 2v-4a18 18 0 0 0-2-7c-1-3-1-3-5-3-3 1-3 1-3-8 0-7 0-7 4-7h5l-1-6v-6h27l3-6a320 320 0 0 0 11-18l5 9a386 386 0 0 1 15 36l5-8 7-11a45 45 0 0 0 3-5l4-8c3-3 6-9 7-12l2-4 2 4c2 2 6 14 10 26 6 18 8 22 10 22l2-1 6-13 10-21 7-12 3-3 2 7 3 14 7 17a68 68 0 0 1 5 15c1 1 5-2 7-5a368 368 0 0 1 21-28l5-7 3-6c1-1 11 19 14 30 5 14 9 22 10 22 2 0 7-6 14-17l8-9 10-14 8-11 3-4c4-5 5-5 10 10l10 24c8 17 9 17 16 3a322 322 0 0 1 16-29 83 83 0 0 1 5-8l3-6a15 15 0 0 1 3-4l7 16a394 394 0 0 0 7 27c1 6 2 7 3 7s3 0 3-2a251 251 0 0 0 21-33c5-9 11-19 12-18l2 4zm-381 20 1 8 1 9c0 2 0 2-3 2s-3 0-3-8a78 78 0 0 1-1-10c1-3 5-4 5-1zm2 56v5c0 2-1 2-3 2h-3v-22h3c2 0 3 0 3 6v9zm1 42c0 8 0 9-2 9s-3-2-3-11c-1-7-1-7 1-7h3l1 9zm679-168c0-1-6-7-5-8 0-2 4-3 5-4 2 0 4 5 6 6 3 0 6-7 7-5 1 1 6 4 5 6s-6 4-6 6c1 2 6 4 5 6 0 1-4 6-6 5l-5-5-7 4c-1 1-4-2-5-5s5-4 6-6zM411 94c-4 1-5 1-5 22-1 21-1 21 10 21l7 1a380 380 0 0 0 44 1l32 2c8 1 8 1 10 3 1 4 1 15-1 16h-48l-47 2c-3 3-3 62-1 72 0 4-1 4-16 5l-15 1-2 7-1 32v34l1 19 17 1 15-1v46h-13l-23 1a349 349 0 0 1-56 3l-8-1 4-9 4-10c0-3-2-8-7-13l-2-3a176 176 0 0 1 31-2l1-19 2-26c0-4 0-4 2-4 6 1 12 0 13-2l3-3c2-2 1-5-1-12-2-4-3-7-2-8l5-7c5-6 6-10 2-16-3-5-4-7-2-11 3-5 7-8 13-8 11 0 15-2 17-8 2-4 1-7-3-16l-4-12 4-11c7-12 6-18 0-27-4-4-4-9-1-18 4-12 4-13-2-21-7-11-6-17 3-26 4-3 6-4 9-4a69 69 0 0 0 15 3c6 0 6-3 10-7 5-5 7-6 12-8 3-1 7-2 11-1 5 0 10 1 13 3 4 2 5 2 6 10l1 7a471 471 0 0 1-57 2z"/>
</svg>
