<svg xmlns="http://www.w3.org/2000/svg" width="100%" viewBox=" 0 0 300 150">
  <path
    d="M230 25a28 28 0 0 1 17.3 50 28 28 0 1 1-45 26H97.7a28 28 0 1 1-45-26 28 28 0 1 1 45-26h104.6A28 28 0 0 1 230 25ZM103.5 67c-1.3 0-2.5.2-3.6.6a9 9 0 0 0-3 1.6c-.7.7-1.3 1.5-1.8 2.4a7 7 0 0 0-.7 3 7 7 0 0 0 2.6 5.5 9 9 0 0 0 2.9 1.7 13.2 13.2 0 0 0 7.3 0 9 9 0 0 0 3-1.7c.7-.6 1.4-1.4 1.8-2.4a7 7 0 0 0-1.9-8.5 9 9 0 0 0-2.9-1.6c-1-.4-2.3-.6-3.7-.6Zm97.6 0c-1.3 0-2.5.2-3.6.5-1.1.4-2 1-3 1.6-.7.7-1.4 1.5-1.8 2.5a7 7 0 0 0-.7 3 7 7 0 0 0 2.6 5.6 9 9 0 0 0 2.9 1.6 11.5 11.5 0 0 0 8.7-.7l1.6-1-2.1-3.5-1 .7-1.5.7c-.5.2-1.1.3-1.8.3a7 7 0 0 1-1.8-.2 5 5 0 0 1-1.5-.7c-.5-.3-.8-.7-1-1.1a3 3 0 0 1-.4-1.6c0-.6 0-1.1.3-1.6s.6-.8 1-1.1c.4-.3.9-.6 1.4-.7.5-.2 1-.2 1.5-.2a7 7 0 0 1 1.9.2 5.7 5.7 0 0 1 2.3 1.3l2.6-3.4c-.5-.5-1.1-.9-1.9-1.2a11.2 11.2 0 0 0-4.7-1Zm-122.6.4H74v14.7h4.5v-5.3H85v5.3h4.5V67.4H85V73h-6.4v-5.5Zm42.1 0H116l4.7 14.7h4l2.8-7.5 3.1 7.5h3.6l5.2-14.7H135l-2.2 6.2-.2.9a43.5 43.5 0 0 0-.4 1.8 19.2 19.2 0 0 0-.9-2.7l-1.9-4.7H126l-1.9 4.8a17.4 17.4 0 0 0-.8 2.5V76a28.6 28.6 0 0 0-.7-2.3l-1.9-6.3Zm35.6 0H152v14.7h4.4v-4.3a127.7 127.7 0 0 0 0-2.9l-.2-1.1L164 82h4.2V67.4H164v4a18 18 0 0 0 0 2.2 41.1 41.1 0 0 0 .3 2.2l-8-8.4Zm30.6 0H175v3.8h3.6v7.1H175v3.8h11.8v-3.8h-3.6v-7.1h3.6v-3.8Zm39.3 0H213v14.7h13.5v-3.7h-9.2v-2h8V73h-8v-2h8.8v-3.6Zm-122.6 3.8a6 6 0 0 1 1.9.3c.5.1 1 .4 1.4.7l1 1.1c.2.4.3.9.3 1.4 0 .5-.1 1-.4 1.3-.2.5-.5.8-1 1.1l-1.3.8a6 6 0 0 1-1.9.2c-.6 0-1.2 0-1.8-.2-.5-.2-1-.4-1.4-.8l-1-1a3 3 0 0 1-.2-1.4 3 3 0 0 1 1.2-2.5c.4-.3.9-.6 1.4-.7l1.8-.3Z" />
</svg>
