<svg xmlns="http://www.w3.org/2000/svg" viewBox="0 0 240 240">
  <path fill="#0B0C0C" d="M94.3 0C56 0 22 18 0 46v148A120 120 0 1 0 94.3 0Z"/>
  <path stroke="#FFF" stroke-width="2" d="M20 137h156M51 195h92"/>
  <path fill="#FFF" fill-rule="nonzero" d="M51 152h5.6l2.7 12a51.2 51.2 0 0 1 1.2 7.2 463.1 463.1 0 0 0 1.2-7.2l2.8-12H70v31h-4v-10.3a239.6 239.6 0 0 1 .4-14h-.3L62 179h-2.7L55 158.8h-.3a108 108 0 0 1 .4 9.4V183h-4v-31Zm31 31.5-1.4-.1a5.3 5.3 0 0 1-3.1-1.6c-.5-.5-1-1.1-1.3-1.9a12 12 0 0 1-.9-2.9c-.2-1-.3-2.4-.3-4v-11.2c0-1.5.1-2.9.3-4 .3-1.1.6-2 1-2.8.3-.8.8-1.4 1.2-1.9a5.6 5.6 0 0 1 3.1-1.5 10.4 10.4 0 0 1 2.9 0 5.6 5.6 0 0 1 3 1.5c.5.4 1 1 1.3 1.8.4.7.7 1.7.9 2.8.2 1.2.3 2.5.3 4.1V173c0 1.5 0 2.9-.3 4a9 9 0 0 1-1 2.9 6.5 6.5 0 0 1-2.7 3l-1.6.5-1.3.1Zm0-3.6c.5 0 .8 0 1.2-.2.3-.2.5-.5.7-.9l.5-1.5.2-2.5v-14.3c0-1 0-1.8-.2-2.5a5 5 0 0 0-.5-1.6 2 2 0 0 0-.7-.9c-.4-.2-.7-.2-1.1-.2-.5 0-.9 0-1.2.2a2 2 0 0 0-.8.9l-.4 1.6-.2 2.5v14.3c0 1 0 1.8.2 2.5 0 .6.2 1.1.4 1.5.2.4.5.7.8.9l1.2.2ZM94 152h3.5l7 20.7a65.8 65.8 0 0 0-.2-3.6 108.3 108.3 0 0 1-.2-5.8V152h3.9v31h-3.6l-6.9-20.2h-.1a68 68 0 0 0 .3 4 134.6 134.6 0 0 1 .2 7v9.2H94v-31Zm22.4 3.7H112V152h13v3.7h-4.4V183h-4.2v-27.3ZM129 152h4.4v13h5.2v-13h4.4v31h-4.4v-14.3h-5.2V183H129v-31ZM20 116.8a15.4 15.4 0 0 1 .4-3.7h3.3v1.5l.1 2.3.5 1.6c.2.5.5.8.8 1 .4.3.8.4 1.3.4.8 0 1.4-.3 1.8-.8.4-.4.6-1.2.6-2.1v-1.4l-.4-1.2-.5-1.3-1-1.5-4.4-5.9a28 28 0 0 1-1.8-3.4 10.6 10.6 0 0 1-.2-6.5c.3-1 .7-1.7 1.3-2.3.5-.6 1.2-1.1 2-1.5.8-.3 1.7-.5 2.7-.5a7 7 0 0 1 3 .6c.8.4 1.5.9 2 1.5.4.7.8 1.4 1 2.2a9.7 9.7 0 0 1 .2 4.2l-.4 2h-3.2v-1.6c0-1.6-.2-3-.6-3.8a2.1 2.1 0 0 0-2-1.3c-.9 0-1.5.2-1.8.7-.4.5-.6 1.2-.6 2a7.3 7.3 0 0 0 .3 2.2l.4.9.6.8 4.9 6.7a28 28 0 0 1 2 3.8 10.4 10.4 0 0 1 .2 6.9c-.3.9-.7 1.6-1.3 2.2-.5.7-1.2 1.2-2 1.5a7 7 0 0 1-2.8.5c-1.2 0-2.3-.2-3-.6a5.2 5.2 0 0 1-3.1-3.6 10 10 0 0 1-.3-2.5ZM38 92h4v31h-4V92Zm13.4 3.7H47V92h13v3.7h-4.4V123h-4.2V95.7ZM65 92h10.8v3.7h-6.4v9.3h5v3.7h-5v10.6H76v3.7H65V92Zm29.1 31.5-1.4-.1a5.3 5.3 0 0 1-3.1-1.6 5 5 0 0 1-1.3-2 12 12 0 0 1-.9-2.8c-.2-1.1-.3-2.5-.3-4v-11.2c0-1.5.1-2.9.3-4 .3-1.1.6-2 1-2.8.3-.8.7-1.4 1.2-1.9a5.6 5.6 0 0 1 3.1-1.5 10.4 10.4 0 0 1 2.9 0 5.6 5.6 0 0 1 3 1.5c.5.4 1 1 1.3 1.8.4.7.7 1.7.9 2.8.2 1.2.3 2.5.3 4.1V113c0 1.5 0 2.9-.3 4-.2 1.1-.5 2-1 2.8a6.5 6.5 0 0 1-2.7 3c-.6.3-1 .5-1.6.6h-1.4Zm0-3.6c.5 0 .8 0 1.2-.2.3-.2.5-.5.7-.9l.5-1.5.2-2.5v-14.3l-.2-2.5a5 5 0 0 0-.5-1.6 2 2 0 0 0-.7-.9c-.4-.2-.7-.2-1.2-.2-.4 0-.8 0-1 .2a2 2 0 0 0-.9.9l-.5 1.6-.1 2.5v14.3l.1 2.5.5 1.5c.2.4.5.7.8.9l1.1.2ZM107 92h11v3.7h-6.6v9.3h5.2v3.7h-5.2V123H107V92Zm24.4 3.7H127V92h13v3.7h-4.4V123h-4.2V95.7ZM145 92h4.4v13h5.2V92h4.4v31h-4.4v-14.3h-5.2V123H145V92Zm20 0h10.8v3.7h-6.4v9.3h5v3.7h-5v10.6h6.6v3.7h-11V92Z"/>
  <path fill="#E40052" d="m97 27 7.5 18.5H125l-17.5 11 7 18L97 64 81 74.5l5.5-18-15.5-11h20z"/>
</svg>
