<svg height="720" viewBox="0 0 1440 720" width="1440" xmlns="http://www.w3.org/2000/svg"><text fill="#333" font-family="sans-serif" font-size="1.75" x="1100" y="710">Containers</text><path d="m1100 510v80h108v-80zm113 0v80h108v-80zm114 0v80h108v-80zm-227 85v60h80v-60zm85 0v60h80v-60zm85 0v60h80v-60zm85 0v60h80v-60zm-255-300v120h250v-120zm255 0v120h80v-120zm-255 125v60h80v-60zm85 0v60h80v-60zm85 0v60h80v-60zm85 0v60h80v-60zm-255-340v120h335v-120zm0 125v60h80v-60zm85 0v60h80v-60zm85 0v60h80v-60zm85 0v60h80v-60z" fill="#ccc" opacity=".5"/><text fill="#333" font-family="sans-serif" font-size="1.75" x="500" y="710">Slices</text><path d="m500 595v60h80v-60zm85 0v60h80v-60zm85 0v60h80v-60zm85 0v60h80v-60zm-255-110v80h108v-80zm113 0v80h108v-80zm114 0v80h108v-80zm-227-150v120h165v-120zm170 0v120h165v-120zm-170-150v120h250v-120zm255 0v120h80v-120zm-255-150h335v120h-335z" fill="#ccc" opacity=".5"/><text fill="#333" font-family="sans-serif" font-size="1.75" x="5" y="710">Items</text><path d="m5 535h165v120h-165zm0-110h108v80h-108zm0-90h80v60h-80z" fill="#ccc" opacity=".5"/></svg>