<svg viewBox="0 0 320 336" xmlns="http://www.w3.org/2000/svg"><g fill="none" stroke="#999"><g stroke-width="2"><path d="m111 242v-59l49-49 49 49v59z"/><path d="m123 238-4 4 4 4"/><path d="m155 238-4 4 4 4"/><path d="m187 238-4 4 4 4"/><path d="m205 231 4 4 4-4"/><path d="m205 201 4 4 4-4"/><path d="m107 223 4-4 4 4"/><path d="m107 191 4-4 4 4"/><path d="m126 162h6v6"/><path d="m149 139h6v6"/><path d="m181 149v6h-6"/><path d="m205 173v6h-6"/></g><g stroke-width="2"><path d="m91 262v-89l69-69 69 69v89z"/><path d="m127 255 7 7-7 7"/><path d="m195 255 7 7-7 7"/><path d="m222 218 7-7 7 7"/><path d="m223 158h-10v10"/><path d="m110 144v10h10"/><path d="m177 111h-10v10"/><path d="m84 188 7 7 7-7"/><path d="m84 244 7 7 7-7"/></g><g stroke-width="4"><path d="m70 281v-120l90-90 90 90v120z"/><path d="m109 108h14v15"/><path d="m89 291-10-10 10-10"/><path d="m60 183 10-10 10 10"/><path d="m260 173-10 10-10-10"/><path d="m239 291-10-10 10-10"/><path d="m195 121h14v-15"/></g></g><path d="m268 217h-6l14-14 14 14h-6v66h-16zm-216-4h6l-14 14-14-14h6v-66l124-124 124 124v60l-8-8-8 8v-52l-108-110-108 110zm0 10v60h-16v-60l8 8z" fill="#ccc"/><g fill="none" stroke="#999" stroke-width="4"><path d="m16 283v-135l144-145 144 145v135"/><path d="m8 264 8-8 8 8"/><path d="m312 256-8 8-8-8"/><path d="m80 70h13v13"/><path d="m240 70v13h-13"/></g><path d="m0 296h320v24h-320z" fill="#ccc"/></svg>